# xmcd
#
# Track frame offsets:
#	150
#	31419
#	59832
#	83937
#	113105
#	134912
#	162222
#	192217
#	227582
#	257082
#	278335
#
# Disc length: 4265
#
# Revision: 2
# Processed by: cddbd v1.5.1PL0 Copyright (c) Steve Scherf et al.
# Submitted via: CDex 1.51
# Normalized: r1:TRMNUM
#
DISCID=9910a70b
DTITLE=KJM 10TH FOR KJM - kyoto jazz massive
DYEAR=1900
DGENRE=Jazz
TTITLE0=restless soul feat. RASIYAH_TIME TO FLY
TTITLE1=FACE_NO FEAR
TTITLE2=KYOTO JAZZ MASSIVE_ENDLESS FLIGHT
TTITLE3=DA LATA_RONCO DA CUICA
TTITLE4=LOUIE VEGA and THE EOL BAND_APHRODITE
TTITLE5=AFRONAUGHT feat. ALISON DAVID_NOW OR NEVER
TTITLE6=DOMU_TAKING FLIGHT
TTITLE7=LARS BARTKUHN_FIRST FRIENDSHIP
TTITLE8=MARKUS ENOCHSON feat. INGELA OLSSON_LISTEN 4 IT
TTITLE9=DEGO and KAIDI TATHAM_COME WITH ME
TTITLE10=REEL PEOPLE feat. VANESSA FREEMAN_TOMORROW NEVER COMES
EXTD=
EXTT0=
EXTT1=
EXTT2=
EXTT3=
EXTT4=
EXTT5=
EXTT6=
EXTT7=
EXTT8=
EXTT9=
EXTT10=
PLAYORDER=
